# xmcd
#
# Track frame offsets:
#	150
#	11583
#	23073
#	33178
#	42476
#	53692
#	64567
#	78525
#	91103
#	104132
#	116574
#	127260
#	138796
#	148631
#
# Disc length: 2121 seconds
#
# Revision: 0
# Processed by: cddbd v1.4PL0 Copyright (c) Steve Scherf et al.
# Submitted via: dBpowerAMP V4.0
#
DISCID=ba08470e
DTITLE=Patsy Cline - the legend - the legend
DYEAR=1900
DGENRE=Country
TTITLE0=Walkin' after midnight
TTITLE1=I've loved and lost again
TTITLE2=Three cigarettes in the ashtray
TTITLE3=Love me love me honey do
TTITLE4=the heart you break may be your own
TTITLE5=stop, look, and listen
TTITLE6=then you'll know
TTITLE7=yes I understand
TTITLE8=if I could see the world
TTITLE9=Fingerprints
TTITLE10=I cried all the way to the altar
TTITLE11=in care of the blues
TTITLE12=turn the cards slowly
TTITLE13=honky tonk merry go round
EXTD=
EXTT0=
EXTT1=
EXTT2=
EXTT3=
EXTT4=
EXTT5=
EXTT6=
EXTT7=
EXTT8=
EXTT9=
EXTT10=
EXTT11=
EXTT12=
EXTT13=
PLAYORDER=
